<?xml version="1.0" encoding="utf-8"?>
<!-- Generator: Adobe Illustrator 16.0.0, SVG Export Plug-In . SVG Version: 6.00 Build 0)  -->
<!DOCTYPE svg PUBLIC "-//W3C//DTD SVG 1.1//EN" "http://www.w3.org/Graphics/SVG/1.1/DTD/svg11.dtd">
<svg version="1.1" id="레이어_1" xmlns="http://www.w3.org/2000/svg" xmlns:xlink="http://www.w3.org/1999/xlink" x="0px"
	 y="0px" width="16px" height="16px" viewBox="0 0 16 16" style="enable-background:new 0 0 16 16;" xml:space="preserve">
<path style="fill:#4B557C;" d="M16.067,7H9V0.901c0-0.519-0.482-0.94-1-0.943C7.481-0.045,7,0.375,7,0.892V7h-7.049
	c-0.518,0-0.936,0.481-0.933,1c0.003,0.519,0.424,1,0.943,1H7v6.008c0,0.52,0.451,0.94,0.97,0.942c0.26,0,0.541-0.103,0.711-0.273
	C8.849,15.508,9,15.275,9,15.018V9h7.076c0.258,0,0.491-0.166,0.661-0.334c0.169-0.17,0.273-0.437,0.273-0.696
	C17.008,7.452,16.586,7,16.067,7z"/>
</svg>
